# Made in Blockbench 4.8.1
mtllib woods_shield.mtl

o cube
v 0.15468749999999998 0.04343750000000002 0.21718749999999998
v 0.15468749999999998 0.04343750000000002 -0.21718749999999998
v 0.15468749999999998 -0.05593749999999997 0.21718749999999998
v 0.15468749999999998 -0.05593749999999997 -0.21718749999999998
v -0.15468749999999998 0.04343750000000002 -0.21718749999999998
v -0.15468749999999998 0.04343750000000002 0.21718749999999998
v -0.15468749999999998 -0.05593749999999997 -0.21718749999999998
v -0.15468749999999998 -0.05593749999999997 0.21718749999999998
vt 0.21875 0.65625
vt 0.375 0.65625
vt 0.375 0.59375
vt 0.21875 0.59375
vt 0.3125 0.875
vt 0.53125 0.875
vt 0.53125 0.8125
vt 0.3125 0.8125
vt 0.375 0.8125
vt 0.53125 0.8125
vt 0.53125 0.75
vt 0.375 0.75
vt 0 0.65625
vt 0.21875 0.65625
vt 0.21875 0.59375
vt 0 0.59375
vt 0.15625 0.78125
vt 0 0.78125
vt 0 1
vt 0.15625 1
vt 0.3125 1
vt 0.15625 1
vt 0.15625 0.78125
vt 0.3125 0.78125
vn 0 0 -1
vn 1 0 0
vn 0 0 1
vn -1 0 0
vn 0 1 0
vn 0 -1 0
usemtl m_891e1311-7223-fce5-03a6-2ba07ea7b49c
f 4/4/1 7/3/1 5/2/1 2/1/1
f 3/8/2 4/7/2 2/6/2 1/5/2
f 8/12/3 3/11/3 1/10/3 6/9/3
f 7/16/4 8/15/4 6/14/4 5/13/4
f 6/20/5 1/19/5 2/18/5 5/17/5
f 7/24/6 4/23/6 3/22/6 8/21/6
o cube
v 0.15468749999999998 -0.060624999999999984 0.6125
v 0.15468749999999998 -0.060624999999999984 0.17812499999999987
v 0.15468749999999998 -0.060624999999999984 0.6125
v 0.15468749999999998 -0.060624999999999984 0.17812499999999987
v -0.15468749999999998 -0.060624999999999984 0.17812499999999987
v -0.15468749999999998 -0.060624999999999984 0.6125
v -0.15468749999999998 -0.060624999999999984 0.17812499999999987
v -0.15468749999999998 -0.060624999999999984 0.6125
vt 0.71875 0.78125
vt 0.5625 0.78125
vt 0.5625 1
vt 0.71875 1
vt 0.71875 1
vt 0.5625 1
vt 0.5625 0.78125
vt 0.71875 0.78125
vn 0 1 0
vn 0 -1 0
usemtl m_891e1311-7223-fce5-03a6-2ba07ea7b49c
f 14/28/7 9/27/7 10/26/7 13/25/7
f 15/32/8 12/31/8 11/30/8 16/29/8
o cube
v 0.09218749999999998 0.05281250000000004 0.46406250000000004
v 0.09218749999999998 0.05281250000000004 0.21718749999999987
v 0.09218749999999998 -0.04656249999999995 0.46406250000000004
v 0.09218749999999998 -0.04656249999999995 0.21718749999999987
v -0.15468749999999998 0.05281250000000004 0.21718749999999987
v -0.15468749999999998 0.05281250000000004 0.46406250000000004
v -0.15468749999999998 -0.04656249999999995 0.21718749999999987
v -0.15468749999999998 -0.04656249999999995 0.46406250000000004
vt 0 0.59375
vt 0.125 0.59375
vt 0.125 0.53125
vt 0 0.53125
vt 0.125 0.59375
vt 0.25 0.59375
vt 0.25 0.53125
vt 0.125 0.53125
vt 0.25 0.59375
vt 0.375 0.59375
vt 0.375 0.53125
vt 0.25 0.53125
vt 0.4375 1
vt 0.5625 1
vt 0.5625 0.9375
vt 0.4375 0.9375
vt 0.125 0.65625
vt 0 0.65625
vt 0 0.78125
vt 0.125 0.78125
vt 0.25 0.78125
vt 0.125 0.78125
vt 0.125 0.65625
vt 0.25 0.65625
vn 0 0 -1
vn 1 0 0
vn 0 0 1
vn -1 0 0
vn 0 1 0
vn 0 -1 0
usemtl m_891e1311-7223-fce5-03a6-2ba07ea7b49c
f 20/36/9 23/35/9 21/34/9 18/33/9
f 19/40/10 20/39/10 18/38/10 17/37/10
f 24/44/11 19/43/11 17/42/11 22/41/11
f 23/48/12 24/47/12 22/46/12 21/45/12
f 22/52/13 17/51/13 18/50/13 21/49/13
f 23/56/14 20/55/14 19/54/14 24/53/14
o cube
v 0.2530641877611549 0.041874999999999996 0.3038013497847294
v 0.15858921539602333 0.041874999999999996 0.07571859019600535
v 0.2530641877611549 0.0050000000000000044 0.3038013497847294
v 0.15858921539602333 0.0050000000000000044 0.07571859019600535
v -0.0694935441927007 0.041874999999999996 0.17019356256113694
v 0.024981428172430875 0.041874999999999996 0.398276322149861
v -0.0694935441927007 0.0050000000000000044 0.17019356256113694
v 0.024981428172430875 0.0050000000000000044 0.398276322149861
vt 0.46875 0.5625
vt 0.59375 0.5625
vt 0.59375 0.53125
vt 0.46875 0.53125
vt 0.46875 0.53125
vt 0.59375 0.53125
vt 0.59375 0.5
vt 0.46875 0.5
vt 0.375 0.5
vt 0.5 0.5
vt 0.5 0.46875
vt 0.375 0.46875
vt 0.5 0.5
vt 0.625 0.5
vt 0.625 0.46875
vt 0.5 0.46875
vt 0.375 0.65625
vt 0.25 0.65625
vt 0.25 0.78125
vt 0.375 0.78125
vt 0.4375 1
vt 0.3125 1
vt 0.3125 0.875
vt 0.4375 0.875
vn -0.3826834323650897 0 -0.9238795325112867
vn 0.9238795325112867 0 -0.3826834323650897
vn 0.3826834323650897 0 0.9238795325112867
vn -0.9238795325112867 0 0.3826834323650897
vn 0 1 0
vn 0 -1 0
usemtl m_891e1311-7223-fce5-03a6-2ba07ea7b49c
f 28/60/15 31/59/15 29/58/15 26/57/15
f 27/64/16 28/63/16 26/62/16 25/61/16
f 32/68/17 27/67/17 25/66/17 30/65/17
f 31/72/18 32/71/18 30/70/18 29/69/18
f 30/76/19 25/75/19 26/74/19 29/73/19
f 31/80/20 28/79/20 27/78/20 32/77/20
o cube
v 0.15468749999999998 0.04343750000000002 -0.21718749999999998
v 0.15468749999999998 0.04343750000000002 -0.40156250000000004
v 0.15468749999999998 -0.05593749999999997 -0.21718749999999998
v 0.15468749999999998 -0.05593749999999997 -0.40156250000000004
v -0.029687499999999978 0.04343750000000002 -0.40156250000000004
v -0.029687499999999978 0.04343750000000002 -0.21718749999999998
v -0.029687499999999978 -0.05593749999999997 -0.40156250000000004
v -0.029687499999999978 -0.05593749999999997 -0.21718749999999998
vt 0.4375 0.9375
vt 0.53125 0.9375
vt 0.53125 0.875
vt 0.4375 0.875
vt 0.375 0.5625
vt 0.46875 0.5625
vt 0.46875 0.5
vt 0.375 0.5
vt 0 0.53125
vt 0.09375 0.53125
vt 0.09375 0.46875
vt 0 0.46875
vt 0.09375 0.53125
vt 0.1875 0.53125
vt 0.1875 0.46875
vt 0.09375 0.46875
vt 0.46875 0.65625
vt 0.375 0.65625
vt 0.375 0.75
vt 0.46875 0.75
vt 0.46875 0.65625
vt 0.375 0.65625
vt 0.375 0.5625
vt 0.46875 0.5625
vn 0 0 -1
vn 1 0 0
vn 0 0 1
vn -1 0 0
vn 0 1 0
vn 0 -1 0
usemtl m_891e1311-7223-fce5-03a6-2ba07ea7b49c
f 36/84/21 39/83/21 37/82/21 34/81/21
f 35/88/22 36/87/22 34/86/22 33/85/22
f 40/92/23 35/91/23 33/90/23 38/89/23
f 39/96/24 40/95/24 38/94/24 37/93/24
f 38/100/25 33/99/25 34/98/25 37/97/25
f 39/104/26 36/103/26 35/102/26 40/101/26
o cube
v -0.029687499999999978 0.06843750000000004 -0.21718749999999998
v -0.029687499999999978 0.06843750000000004 -0.3390625
v -0.029687499999999978 -0.03093749999999995 -0.21718749999999998
v -0.029687499999999978 -0.03093749999999995 -0.3390625
v -0.15156249999999993 0.06843750000000004 -0.3390625
v -0.15156249999999993 0.06843750000000004 -0.21718749999999998
v -0.15156249999999993 -0.03093749999999995 -0.3390625
v -0.15156249999999993 -0.03093749999999995 -0.21718749999999998
vt 0.1875 0.53125
vt 0.25 0.53125
vt 0.25 0.46875
vt 0.1875 0.46875
vt 0.25 0.53125
vt 0.3125 0.53125
vt 0.3125 0.46875
vt 0.25 0.46875
vt 0.46875 0.75
vt 0.53125 0.75
vt 0.53125 0.6875
vt 0.46875 0.6875
vt 0.3125 0.53125
vt 0.375 0.53125
vt 0.375 0.46875
vt 0.3125 0.46875
vt 0.53125 0.625
vt 0.46875 0.625
vt 0.46875 0.6875
vt 0.53125 0.6875
vt 0.53125 0.625
vt 0.46875 0.625
vt 0.46875 0.5625
vt 0.53125 0.5625
vn 0 0 -1
vn 1 0 0
vn 0 0 1
vn -1 0 0
vn 0 1 0
vn 0 -1 0
usemtl m_891e1311-7223-fce5-03a6-2ba07ea7b49c
f 44/108/27 47/107/27 45/106/27 42/105/27
f 43/112/28 44/111/28 42/110/28 41/109/28
f 48/116/29 43/115/29 41/114/29 46/113/29
f 47/120/30 48/119/30 46/118/30 45/117/30
f 46/124/31 41/123/31 42/122/31 45/121/31
f 47/128/32 44/127/32 43/126/32 48/125/32