# Made in Blockbench 4.8.3
mtllib woods_shield.mtl

o cube
v 0.16874999999999996 -0.2584375 0.06203124999999998
v 0.16874999999999996 -0.2584375 -0.03734375000000001
v 0.16874999999999996 -0.6928124999999999 0.06203124999999998
v 0.16874999999999996 -0.6928124999999999 -0.03734375000000001
v -0.140625 -0.2584375 -0.03734375000000001
v -0.140625 -0.2584375 0.06203124999999998
v -0.140625 -0.6928124999999999 -0.03734375000000001
v -0.140625 -0.6928124999999999 0.06203124999999998
vt 0.15625 0.78125
vt 0.3125 0.78125
vt 0.3125 1
vt 0.15625 1
vt 0.53125 0.875
vt 0.53125 0.8125
vt 0.3125 0.8125
vt 0.3125 0.875
vt 0.15625 0.78125
vt 0 0.78125
vt 0 1
vt 0.15625 1
vt 0 0.59375
vt 0 0.65625
vt 0.21875 0.65625
vt 0.21875 0.59375
vt 0.375 0.59375
vt 0.21875 0.59375
vt 0.21875 0.65625
vt 0.375 0.65625
vt 0.375 0.8125
vt 0.53125 0.8125
vt 0.53125 0.75
vt 0.375 0.75
vn 0 0 -1
vn 1 0 0
vn 0 0 1
vn -1 0 0
vn 0 1 0
vn 0 -1 0
usemtl m_b4556716-faea-180c-14c8-ca089a4ead56
f 4/4/1 7/3/1 5/2/1 2/1/1
f 3/8/2 4/7/2 2/6/2 1/5/2
f 8/12/3 3/11/3 1/10/3 6/9/3
f 7/16/4 8/15/4 6/14/4 5/13/4
f 6/20/5 1/19/5 2/18/5 5/17/5
f 7/24/6 4/23/6 3/22/6 8/21/6
o cube
v 0.16874999999999996 -0.6537499999999999 -0.042031249999999964
v 0.16874999999999996 -0.6537499999999999 -0.042031249999999964
v 0.16874999999999996 -1.088125 -0.042031249999999964
v 0.16874999999999996 -1.088125 -0.042031249999999964
v -0.140625 -0.6537499999999999 -0.042031249999999964
v -0.140625 -0.6537499999999999 -0.042031249999999964
v -0.140625 -1.088125 -0.042031249999999964
v -0.140625 -1.088125 -0.042031249999999964
vt 0.5625 0.78125
vt 0.71875 0.78125
vt 0.71875 1
vt 0.5625 1
vt 0.71875 0.78125
vt 0.5625 0.78125
vt 0.5625 1
vt 0.71875 1
vn 0 0 -1
vn 0 0 1
usemtl m_b4556716-faea-180c-14c8-ca089a4ead56
f 12/28/7 15/27/7 13/26/7 10/25/7
f 16/32/8 11/31/8 9/30/8 14/29/8
o cube
v 0.10624999999999996 -0.6928124999999999 0.07140625000000012
v 0.10624999999999996 -0.6928124999999999 -0.027968750000000042
v 0.10624999999999996 -0.9396875 0.07140625000000012
v 0.10624999999999996 -0.9396875 -0.027968750000000042
v -0.140625 -0.6928124999999999 -0.027968750000000042
v -0.140625 -0.6928124999999999 0.07140625000000012
v -0.140625 -0.9396875 -0.027968750000000042
v -0.140625 -0.9396875 0.07140625000000012
vt 0.125 0.65625
vt 0.25 0.65625
vt 0.25 0.78125
vt 0.125 0.78125
vt 0.25 0.59375
vt 0.25 0.53125
vt 0.125 0.53125
vt 0.125 0.59375
vt 0.125 0.65625
vt 0 0.65625
vt 0 0.78125
vt 0.125 0.78125
vt 0.4375 0.9375
vt 0.4375 1
vt 0.5625 1
vt 0.5625 0.9375
vt 0.125 0.53125
vt 0 0.53125
vt 0 0.59375
vt 0.125 0.59375
vt 0.25 0.59375
vt 0.375 0.59375
vt 0.375 0.53125
vt 0.25 0.53125
vn 0 0 -1
vn 1 0 0
vn 0 0 1
vn -1 0 0
vn 0 1 0
vn 0 -1 0
usemtl m_b4556716-faea-180c-14c8-ca089a4ead56
f 20/36/9 23/35/9 21/34/9 18/33/9
f 19/40/10 20/39/10 18/38/10 17/37/10
f 24/44/11 19/43/11 17/42/11 22/41/11
f 23/48/12 24/47/12 22/46/12 21/45/12
f 22/52/13 17/51/13 18/50/13 21/49/13
f 23/56/14 20/55/14 19/54/14 24/53/14
o cube
v 0.14809117104412073 -0.6093181043724235 0.06046874999999996
v 0.14809117104412073 -0.6093181043724235 0.02359374999999997
v 0.14809117104412073 -0.8561931043724236 0.06046874999999996
v 0.14809117104412073 -0.8561931043724236 0.02359374999999997
v -0.09878382895587945 -0.6093181043724235 0.02359374999999997
v -0.09878382895587945 -0.6093181043724235 0.06046874999999996
v -0.09878382895587945 -0.8561931043724236 0.02359374999999997
v -0.09878382895587945 -0.8561931043724236 0.06046874999999996
vt 0.3125 0.875
vt 0.4375 0.875
vt 0.4375 1
vt 0.3125 1
vt 0.59375 0.53125
vt 0.59375 0.5
vt 0.46875 0.5
vt 0.46875 0.53125
vt 0.375 0.65625
vt 0.25 0.65625
vt 0.25 0.78125
vt 0.375 0.78125
vt 0.5 0.46875
vt 0.5 0.5
vt 0.625 0.5
vt 0.625 0.46875
vt 0.59375 0.53125
vt 0.46875 0.53125
vt 0.46875 0.5625
vt 0.59375 0.5625
vt 0.375 0.5
vt 0.5 0.5
vt 0.5 0.46875
vt 0.375 0.46875
vn 0 0 -1
vn 1 0 0
vn 0 0 1
vn -1 0 0
vn 0 1 0
vn 0 -1 0
usemtl m_b4556716-faea-180c-14c8-ca089a4ead56
f 28/60/15 31/59/15 29/58/15 26/57/15
f 27/64/16 28/63/16 26/62/16 25/61/16
f 32/68/17 27/67/17 25/66/17 30/65/17
f 31/72/18 32/71/18 30/70/18 29/69/18
f 30/76/19 25/75/19 26/74/19 29/73/19
f 31/80/20 28/79/20 27/78/20 32/77/20
o cube
v 0.16874999999999996 -0.07406249999999992 0.06203124999999998
v 0.16874999999999996 -0.07406249999999992 -0.03734375000000001
v 0.16874999999999996 -0.2584375 0.06203124999999998
v 0.16874999999999996 -0.2584375 -0.03734375000000001
v -0.015625 -0.07406249999999992 -0.03734375000000001
v -0.015625 -0.07406249999999992 0.06203124999999998
v -0.015625 -0.2584375 -0.03734375000000001
v -0.015625 -0.2584375 0.06203124999999998
vt 0.375 0.5625
vt 0.46875 0.5625
vt 0.46875 0.65625
vt 0.375 0.65625
vt 0.46875 0.5625
vt 0.46875 0.5
vt 0.375 0.5
vt 0.375 0.5625
vt 0.46875 0.65625
vt 0.375 0.65625
vt 0.375 0.75
vt 0.46875 0.75
vt 0.09375 0.46875
vt 0.09375 0.53125
vt 0.1875 0.53125
vt 0.1875 0.46875
vt 0.53125 0.875
vt 0.4375 0.875
vt 0.4375 0.9375
vt 0.53125 0.9375
vt 0 0.53125
vt 0.09375 0.53125
vt 0.09375 0.46875
vt 0 0.46875
vn 0 0 -1
vn 1 0 0
vn 0 0 1
vn -1 0 0
vn 0 1 0
vn 0 -1 0
usemtl m_b4556716-faea-180c-14c8-ca089a4ead56
f 36/84/21 39/83/21 37/82/21 34/81/21
f 35/88/22 36/87/22 34/86/22 33/85/22
f 40/92/23 35/91/23 33/90/23 38/89/23
f 39/96/24 40/95/24 38/94/24 37/93/24
f 38/100/25 33/99/25 34/98/25 37/97/25
f 39/104/26 36/103/26 35/102/26 40/101/26
o cube
v -0.015625 -0.13656249999999992 0.08703125000000012
v -0.015625 -0.13656249999999992 -0.012343750000000042
v -0.015625 -0.2584375 0.08703125000000012
v -0.015625 -0.2584375 -0.012343750000000042
v -0.13749999999999996 -0.13656249999999992 -0.012343750000000042
v -0.13749999999999996 -0.13656249999999992 0.08703125000000012
v -0.13749999999999996 -0.2584375 -0.012343750000000042
v -0.13749999999999996 -0.2584375 0.08703125000000012
vt 0.46875 0.5625
vt 0.53125 0.5625
vt 0.53125 0.625
vt 0.46875 0.625
vt 0.3125 0.53125
vt 0.3125 0.46875
vt 0.25 0.46875
vt 0.25 0.53125
vt 0.53125 0.625
vt 0.46875 0.625
vt 0.46875 0.6875
vt 0.53125 0.6875
vt 0.3125 0.46875
vt 0.3125 0.53125
vt 0.375 0.53125
vt 0.375 0.46875
vt 0.25 0.46875
vt 0.1875 0.46875
vt 0.1875 0.53125
vt 0.25 0.53125
vt 0.46875 0.75
vt 0.53125 0.75
vt 0.53125 0.6875
vt 0.46875 0.6875
vn 0 0 -1
vn 1 0 0
vn 0 0 1
vn -1 0 0
vn 0 1 0
vn 0 -1 0
usemtl m_b4556716-faea-180c-14c8-ca089a4ead56
f 44/108/27 47/107/27 45/106/27 42/105/27
f 43/112/28 44/111/28 42/110/28 41/109/28
f 48/116/29 43/115/29 41/114/29 46/113/29
f 47/120/30 48/119/30 46/118/30 45/117/30
f 46/124/31 41/123/31 42/122/31 45/121/31
f 47/128/32 44/127/32 43/126/32 48/125/32